<svg xmlns="http://www.w3.org/2000/svg" viewBox="0 23.700000762939453 278.95001220703125 46.29999923706055" data-asc="1.2" width="278.95001220703125" height="46.29999923706055"><defs/><g fill="#000000"><g transform="translate(0, 0)"><path d="M9.85 60.35Q6.50 60.35 4.30 59.13Q2.10 57.90 1.05 55.92Q0 53.95 0 51.65Q0 49.60 0.80 47.60Q1.60 45.60 3.18 43.95Q4.75 42.30 7 41.35Q4.95 40.05 3.93 38.22Q2.90 36.40 2.90 34.40Q2.90 31.80 4.60 29.35Q6.30 26.90 9.55 25.30Q12.80 23.70 17.35 23.70Q20.50 23.70 22.38 24.48Q24.25 25.25 25.10 26.48Q25.95 27.70 25.95 29.10Q25.95 30.70 24.95 32.27Q23.95 33.85 22.08 34.85Q20.20 35.85 17.50 35.85Q18.30 33.50 18.30 31.95Q18.30 30.40 17.65 29.70Q17.00 29 16.05 29Q15.05 29 13.93 29.75Q12.80 30.50 12.05 31.85Q11.30 33.20 11.30 35Q11.30 35.95 11.60 37.13Q11.90 38.30 12.55 39.45Q13.65 38.75 14.58 38.42Q15.50 38.10 16.25 38.10Q17.80 38.10 18.50 39.17Q19.20 40.25 19.20 41.60Q19.20 43.20 18.23 44.65Q17.25 46.10 15.35 46.10Q13.60 46.10 11.25 44.45Q8.50 46.40 8.50 49.05Q8.50 51.10 9.78 52.15Q11.05 53.20 13.05 53.20Q15.60 53.20 18.75 51.42Q21.90 49.65 24.35 46.10L24.75 46.35Q24.65 49.85 23.33 52.48Q22.00 55.10 19.88 56.85Q17.75 58.60 15.15 59.48Q12.55 60.35 9.85 60.35ZM33.55 60.20Q31.75 60.20 30.35 58.73Q28.95 57.25 28.95 54.55Q28.95 53.25 29.25 51.60Q29.55 49.95 29.95 48.23Q30.35 46.50 30.65 44.98Q30.95 43.45 30.95 42.45Q30.95 41.40 30.58 40.77Q30.20 40.15 29.60 40.15Q28.65 40.15 27.65 41.45L27.35 41.25Q27.30 40.45 27.70 39.35Q28.10 38.25 28.95 37.22Q29.80 36.20 31.13 35.50Q32.45 34.80 34.25 34.80Q36.90 34.80 38.10 36.33Q39.30 37.85 39.30 40Q39.30 40.35 39.28 40.72Q39.25 41.10 39.20 41.45Q41 38.20 42.98 36.47Q44.95 34.75 46.65 34.75Q48.25 34.75 49 36Q49.75 37.25 49.75 39Q49.75 40.60 49.13 42.25Q48.50 43.90 47.28 44.98Q46.05 46.05 44.30 46L44.10 45.90Q44.05 44.60 43.25 43.85Q42.45 43.10 41.45 43.10Q40.10 43.10 38.93 44.45Q37.75 45.80 37.75 48.35Q37.75 49.90 38.10 51.70Q38.45 53.50 38.45 54.75Q38.45 56.25 37.75 57.50Q37.05 58.75 35.95 59.48Q34.85 60.20 33.55 60.20ZM63.40 70Q60.95 70 59.35 68.55Q57.75 67.10 57.75 64.45Q57.75 61.60 59.75 57.75Q59.40 57.85 59.05 57.90Q58.70 57.95 58.35 57.95Q55.45 57.95 53.48 55.42Q51.50 52.90 51.50 48.40Q51.50 44.35 53.08 41.25Q54.65 38.15 57.10 36.40Q59.55 34.65 62.20 34.65Q64.05 34.65 65.55 35.58Q67.05 36.50 68 38.55Q68.05 38.05 68.05 37.65Q68.05 37.25 68.05 36.90Q68.05 36.05 69.35 35.50Q70.65 34.95 72.25 34.95Q73.70 34.95 74.95 35.50Q76.20 36.05 76.60 37.35L76.70 37.65Q76.25 38.05 75.92 40.25Q75.60 42.45 75.15 46.35Q74.85 48.80 74.40 51.92Q73.95 55.05 73.17 58.23Q72.40 61.40 71.15 64.08Q69.90 66.75 68 68.38Q66.10 70 63.40 70M61.75 52.20Q63.20 52.20 64.97 49.83Q66.75 47.45 67.80 43Q66.90 41.05 65.97 40.22Q65.05 39.40 64.10 39.40Q62.85 39.40 61.75 40.65Q60.65 41.90 59.98 43.83Q59.30 45.75 59.30 47.80Q59.30 49.90 60 51.05Q60.70 52.20 61.75 52.20M61.15 64.25Q62.85 64.25 64.63 60.92Q66.40 57.60 67.10 51.55Q63.30 56.70 61.83 59.48Q60.35 62.25 60.35 63.40Q60.35 64.25 61.15 64.25ZM90 60.35Q86.25 60.35 83.80 58.85Q81.35 57.35 80.17 54.88Q79 52.40 79 49.60Q79 46.95 79.97 44.30Q80.95 41.65 82.82 39.47Q84.70 37.30 87.40 35.97Q90.10 34.65 93.60 34.65Q97.35 34.65 99.77 36.17Q102.20 37.70 103.38 40.20Q104.55 42.70 104.55 45.55Q104.55 48.15 103.60 50.77Q102.65 53.40 100.77 55.58Q98.90 57.75 96.20 59.05Q93.50 60.35 90 60.35M91.35 56.10Q92.70 56.10 93.60 54.70Q94.50 53.30 94.95 51.13Q95.40 48.95 95.40 46.70Q95.40 44.70 95.02 42.92Q94.65 41.15 93.90 40.02Q93.15 38.90 91.95 38.90Q90.65 38.90 89.72 40.30Q88.80 41.70 88.35 43.85Q87.90 46 87.90 48.30Q87.90 50.30 88.27 52.08Q88.65 53.85 89.40 54.98Q90.15 56.10 91.35 56.10ZM116.10 60.30Q112.75 60.30 110.57 59.15Q108.40 58 107.35 56.20Q106.30 54.40 106.30 52.50Q106.30 50.65 107.20 48.98Q108.10 47.30 109.77 46.20Q111.45 45.10 113.75 45.10Q113.70 45.55 113.70 45.92Q113.70 46.30 113.70 46.30Q113.70 49.65 114.35 51.58Q115.00 53.50 116.00 54.33Q117.00 55.15 118.05 55.15Q119.65 55.15 120.90 53.88Q122.15 52.60 122.15 50.90Q122.15 49 120.52 47.55Q118.90 46.10 116.40 44.35Q115.00 43.30 113.42 41.97Q111.85 40.65 110.75 38.83Q109.65 37 109.65 34.50Q109.65 31.90 110.87 29.90Q112.10 27.90 114.12 26.52Q116.15 25.15 118.57 24.42Q121.00 23.70 123.40 23.70Q126.35 23.70 128.25 24.65Q130.15 25.60 131.10 27.10Q132.05 28.60 132.05 30.20Q132.05 31.70 131.22 33.08Q130.40 34.45 128.80 35.30Q127.20 36.15 124.85 36.15Q125.00 35.45 125.05 34.88Q125.10 34.30 125.10 33.85Q125.10 31.35 124.02 30.27Q122.95 29.20 121.65 29.20Q120.40 29.20 119.25 30.13Q118.10 31.05 118.10 33.10Q118.10 34.85 119.02 36.10Q119.95 37.35 121.42 38.30Q122.90 39.25 124.55 40.15Q126.25 41.05 127.82 42.13Q129.40 43.20 130.45 44.65Q131.50 46.10 131.50 48.30Q131.50 50.60 130.25 52.77Q129 54.95 126.85 56.63Q124.70 58.30 121.92 59.30Q119.15 60.30 116.10 60.30ZM144 33.25Q142 33.25 140.72 32.02Q139.45 30.80 139.45 28.95Q139.45 26.95 140.95 25.50Q142.45 24.05 144.60 24.05Q146.60 24.05 147.88 25.30Q149.15 26.55 149.15 28.40Q149.15 30.40 147.65 31.82Q146.15 33.25 144 33.25M140.50 60.20Q138.55 60.20 137 58.83Q135.45 57.45 135.45 54.40Q135.45 52.65 135.92 51.13Q136.40 49.60 137.03 48.15Q137.65 46.70 138.13 45.33Q138.60 43.95 138.60 42.60Q138.60 41.40 138.20 40.88Q137.80 40.35 137.25 40.35Q136.40 40.35 135.60 41.45L135.25 41.25Q135.45 39.25 136.53 37.83Q137.60 36.40 139.17 35.60Q140.75 34.80 142.30 34.80Q144.20 34.80 145.60 36.02Q147 37.25 147 40Q147 41.65 146.53 43.47Q146.05 45.30 145.42 47.10Q144.80 48.90 144.32 50.45Q143.85 52 143.85 53.10Q143.85 54.05 144.22 54.45Q144.60 54.85 145.05 54.85Q145.50 54.85 145.92 54.58Q146.35 54.30 146.55 53.95L146.90 54.05Q146.90 55.90 145.92 57.27Q144.95 58.65 143.50 59.42Q142.05 60.20 140.50 60.20ZM156.70 60.20Q154.90 60.20 153.50 58.73Q152.10 57.25 152.10 54.55Q152.10 53.25 152.40 51.60Q152.70 49.95 153.10 48.23Q153.50 46.50 153.80 44.98Q154.10 43.45 154.10 42.45Q154.10 41.40 153.72 40.77Q153.35 40.15 152.75 40.15Q151.80 40.15 150.80 41.45L150.50 41.25Q150.45 40.45 150.85 39.35Q151.25 38.25 152.10 37.22Q152.95 36.20 154.28 35.50Q155.60 34.80 157.40 34.80Q160.05 34.80 161.25 36.33Q162.45 37.85 162.45 40Q162.45 40.35 162.42 40.72Q162.40 41.10 162.35 41.45Q164.15 38.20 166.13 36.47Q168.10 34.75 169.80 34.75Q171.40 34.75 172.15 36Q172.90 37.25 172.90 39Q172.90 40.60 172.28 42.25Q171.65 43.90 170.43 44.98Q169.20 46.05 167.45 46L167.25 45.90Q167.20 44.60 166.40 43.85Q165.60 43.10 164.60 43.10Q163.25 43.10 162.07 44.45Q160.90 45.80 160.90 48.35Q160.90 49.90 161.25 51.70Q161.60 53.50 161.60 54.75Q161.60 56.25 160.90 57.50Q160.20 58.75 159.10 59.48Q158 60.20 156.70 60.20ZM192.60 60.25Q190.85 60.25 189.55 59.10Q188.25 57.95 188.25 55.35Q188.25 55.10 188.25 54.85Q188.25 54.60 188.30 54.35Q186.80 57.35 184.93 58.77Q183.05 60.20 181.15 60.20Q179.40 60.20 177.85 58.98Q176.30 57.75 175.35 55.35Q174.40 52.95 174.40 49.55Q174.40 46.05 175.38 43.30Q176.35 40.55 177.95 38.65Q179.55 36.75 181.45 35.77Q183.35 34.80 185.15 34.80Q187.15 34.80 188.75 36.02Q190.35 37.25 190.95 39.90Q191.10 39.05 191.18 38.35Q191.25 37.65 191.25 37.40Q191.30 36.05 192.63 35.40Q193.95 34.75 195.55 34.75Q196.95 34.75 198.20 35.30Q199.45 35.85 199.90 37.15L200 37.45Q199.40 38.80 198.80 40.70Q198.20 42.60 197.70 44.67Q197.20 46.75 196.90 48.73Q196.60 50.70 196.60 52.20Q196.60 53.85 196.95 54.48Q197.30 55.10 197.80 55.10Q198.65 55.10 199.35 53.90L199.75 54.10Q199.75 55.80 198.65 57.20Q197.55 58.60 195.90 59.42Q194.25 60.25 192.60 60.25M184.45 53.90Q185.75 53.90 187.33 51.58Q188.90 49.25 190.05 44.90Q190.15 44.45 190.25 44.02Q190.35 43.60 190.40 43.20Q189.60 41.35 188.72 40.58Q187.85 39.80 187 39.80Q185.75 39.80 184.68 41.13Q183.60 42.45 182.93 44.45Q182.25 46.45 182.25 48.45Q182.25 51.20 182.88 52.55Q183.50 53.90 184.45 53.90ZM203.90 49.35Q203.60 48.70 203.48 48.08Q203.35 47.45 203.35 46.90Q203.35 44.95 204.70 43.67Q206.05 42.40 208.35 42.40Q210.55 42.40 212.73 42.58Q214.90 42.75 216.75 42.75Q218.15 42.75 219.28 42.58Q220.40 42.40 221.10 41.90Q222.00 43.55 222.00 45Q222.00 46.70 220.75 47.80Q219.50 48.90 216.85 48.90Q214.10 48.90 212.00 48.83Q209.90 48.75 208.25 48.75Q206.90 48.75 205.83 48.85Q204.75 48.95 203.90 49.35ZM230.85 66.85Q229.35 66.85 228.18 66.40Q227.00 65.95 227.00 65.10Q227.10 60.20 228.68 55.65Q230.25 51.10 232.80 47.20Q235.35 43.30 238.35 40.25Q236.35 40.15 234.13 39.75Q231.90 39.35 229.85 39.35Q228.10 39.35 226.58 39.85Q225.05 40.35 223.90 41.80Q223.05 41.20 222.58 40.05Q222.10 38.90 222.10 37.60Q222.10 36.15 222.68 34.80Q223.25 33.45 224.40 32.55Q225.55 31.65 227.35 31.65Q229.50 31.65 231.60 32.38Q233.70 33.10 235.75 33.80Q237.80 34.50 239.75 34.50Q241.05 34.50 242.28 34.02Q243.50 33.55 244.75 32.45Q245.85 33.35 246.65 35.22Q247.45 37.10 247.45 38.85Q247.45 39.05 247.45 39.25Q247.45 39.45 247.40 39.65Q243.85 41.85 241.18 45.58Q238.50 49.30 237.00 54.23Q235.50 59.15 235.50 65Q235.15 65.95 233.78 66.40Q232.40 66.85 230.85 66.85ZM272 60.35Q270 60.35 268.70 59.45Q267.40 58.55 266.60 57.02Q265.80 55.50 265.33 53.63Q264.85 51.75 264.45 49.85Q263.95 47.20 263.23 44.90Q262.50 42.60 260.90 41.70Q259.90 45.35 259 49.02Q258.10 52.70 258.10 56.30Q258.10 56.85 258.13 57.42Q258.15 58 258.20 58.55Q256.45 60.20 254.15 60.20Q252.25 60.20 250.73 58.75Q249.20 57.30 249.20 54.05Q249.20 51.60 250.00 49.05Q250.80 46.50 251.88 43.90Q252.95 41.30 253.75 38.72Q254.55 36.15 254.55 33.65Q254.55 32 254.15 31.32Q253.75 30.65 253.10 30.65Q252.40 30.65 251.58 31.35Q250.75 32.05 250.00 33.50L249.65 33.40Q249.75 30.85 250.80 28.70Q251.85 26.55 253.63 25.27Q255.40 24 257.50 24Q259.60 24 261.20 25.57Q262.80 27.15 262.80 31Q262.80 32.70 262.48 34.63Q262.15 36.55 261.70 38.55Q263.95 36.60 265.63 34.22Q267.30 31.85 268.23 29.57Q269.15 27.30 269.15 25.60Q269.15 24.50 268.70 23.75Q271.15 23.75 273.08 24.45Q275 25.15 276.15 26.38Q277.30 27.60 277.30 29.20Q277.30 31.35 274.88 33.90Q272.45 36.45 266.70 38.95Q268.15 39.60 269.08 40.88Q270 42.15 270.63 43.63Q271.25 45.10 271.70 46.50Q272.55 48.95 273.38 50.63Q274.20 52.30 275.75 52.30Q276.75 52.30 277.53 51.65Q278.30 51 278.65 50.20L278.95 50.35Q278.95 53.05 278.15 55.33Q277.35 57.60 275.80 58.98Q274.25 60.35 272 60.35Z"/></g></g></svg>